# xmcd
#
# Track frame offsets:
#	150
#	39787
#	61230
#	98972
#	140642
#	152897
#	162572
#	179762
#	194907
#	210160
#	245235
#	262332
#
# Disc length: 3905 seconds
#
# Revision: 1
# Processed by: cddbd v1.5.1PL0 Copyright (c) Steve Scherf et al.
# Submitted via: CDex 1.50Beta5
#
DISCID=bc0f3f0c
DTITLE=せつないメロディ - せつないメロディ
DYEAR=1900
DGENRE=Classical
TTITLE0=チャイコフスキー/弦楽セレナーデ 第1楽章
TTITLE1=リスト/愛の夢 第3番
TTITLE2=ボロディン/ノクターン
TTITLE3=リスト/ハンガリー狂詩曲 第2番
TTITLE4=J.S.バッハ/無伴奏チェロ 第1番 プレリュード
TTITLE5=プッチーニ/私のお父さん
TTITLE6=ショパン/ノクターン 第20番
TTITLE7=マルチェッロ/オーボエ協奏曲 ラルゴ
TTITLE8=ラフマニノフ/パガニーニ・ラプソディ 第18変奏
TTITLE9=サラサーテ/ツィゴイネルワイゼン
TTITLE10=ドッビュシー/アラベスク 第1番
TTITLE11=フォーレ/パヴァーヌ
EXTD=
EXTT0=
EXTT1=
EXTT2=
EXTT3=
EXTT4=
EXTT5=
EXTT6=
EXTT7=
EXTT8=
EXTT9=
EXTT10=
EXTT11=
PLAYORDER=
